# xmcd
#
# Track frame offsets:
#	150
#	21489
#	44283
#	59404
#	75732
#	99535
#	128989
#	139387
#	153382
#	167777
#	185521
#	199612
#
# Disc length: 2699 seconds
# Revision: 0
# Processed by: cddbd v1.5.2PL0 Copyright (c) Steve Scherf et al.
# Submitted via: dBpowerAMP V12.0
#
DISCID=a90a890c
DTITLE=Various Artist - Up and Rolling
DYEAR=2019
DGENRE=Blues
TTITLE0=North Mississippi Allstars - Call That Gone
TTITLE1=North Mississippi Allstars - Up and Rolling
TTITLE2=North Mississippi Allstars feat. Mavis Staples - What You Gonna Do?
TTITLE3=North Mississippi Allstars - Drunk Outdoors
TTITLE4=North Mississippi Allstars - Peaches
TTITLE5=North Mississippi Allstars feat. Jason Isbell And Duane Betts - Mean Old World
TTITLE6=North Mississippi Allstars feat. Cedric Burnside - Out on the Road
TTITLE7=North Mississippi Allstars - Lonesome in My Home
TTITLE8=North Mississippi Allstars - Bump That Mother
TTITLE9=North Mississippi Allstars - Living Free
TTITLE10=North Mississippi Allstars feat. Cedric Burnside - Take My Hand, Precious Lord
TTITLE11=North Mississippi Allstars feat. Otha Turner - Otha's Bye Bye Baby
EXTD=
EXTT0=
EXTT1=
EXTT2=
EXTT3=
EXTT4=
EXTT5=
EXTT6=
EXTT7=
EXTT8=
EXTT9=
EXTT10=
EXTT11=
PLAYORDER=
